<mxfile host="Electron" agent="Mozilla/5.0 (X11; Linux x86_64) AppleWebKit/537.36 (KHTML, like Gecko) draw.io/25.0.2 Chrome/128.0.6613.186 Electron/32.2.7 Safari/537.36" version="25.0.2">
  <diagram name="Page-1" id="PYJ2EbEZMSt3SerLNBYG">
    <mxGraphModel dx="1219" dy="1237" grid="1" gridSize="10" guides="1" tooltips="1" connect="1" arrows="1" fold="1" page="1" pageScale="1" pageWidth="827" pageHeight="1169" background="#444444" math="0" shadow="0">
      <root>
        <mxCell id="0" />
        <mxCell id="1" parent="0" />
        <mxCell id="6Kz1UC2CJ3yodjOeMeaO-1" value="&lt;div style=&quot;&quot;&gt;S0&lt;/div&gt;" style="rounded=1;whiteSpace=wrap;html=1;fontFamily=monospace;align=center;spacing=7;verticalAlign=middle;spacingTop=0;fillColor=#333333;" vertex="1" parent="1">
          <mxGeometry x="20" y="20" width="36" height="30" as="geometry" />
        </mxCell>
        <mxCell id="6Kz1UC2CJ3yodjOeMeaO-2" style="edgeStyle=orthogonalEdgeStyle;rounded=0;orthogonalLoop=1;jettySize=auto;html=1;fontFamily=monospace;fontSize=12;fontColor=default;labelBackgroundColor=#444444;resizable=0;" edge="1" parent="1" source="6Kz1UC2CJ3yodjOeMeaO-4" target="6Kz1UC2CJ3yodjOeMeaO-1">
          <mxGeometry relative="1" as="geometry" />
        </mxCell>
        <mxCell id="6Kz1UC2CJ3yodjOeMeaO-3" value="a" style="edgeLabel;html=1;align=center;verticalAlign=middle;resizable=0;points=[];rounded=0;strokeColor=default;spacing=10;fontFamily=monospace;fontSize=12;fontColor=default;labelBackgroundColor=#444444;fillColor=default;gradientColor=none;" vertex="1" connectable="0" parent="6Kz1UC2CJ3yodjOeMeaO-2">
          <mxGeometry x="-0.1364" y="2" relative="1" as="geometry">
            <mxPoint y="-2" as="offset" />
          </mxGeometry>
        </mxCell>
        <mxCell id="6Kz1UC2CJ3yodjOeMeaO-4" value="&lt;div style=&quot;&quot;&gt;S2&lt;/div&gt;" style="rounded=1;whiteSpace=wrap;html=1;fontFamily=monospace;align=center;spacing=7;verticalAlign=middle;spacingTop=0;fillColor=#333333;strokeColor=default;fontSize=12;fontColor=default;" vertex="1" parent="1">
          <mxGeometry x="100" y="20" width="36" height="30" as="geometry" />
        </mxCell>
        <mxCell id="6Kz1UC2CJ3yodjOeMeaO-5" style="edgeStyle=orthogonalEdgeStyle;rounded=0;orthogonalLoop=1;jettySize=auto;html=1;fontFamily=monospace;fontSize=12;fontColor=default;labelBackgroundColor=#444444;resizable=0;" edge="1" parent="1" source="6Kz1UC2CJ3yodjOeMeaO-7" target="6Kz1UC2CJ3yodjOeMeaO-4">
          <mxGeometry relative="1" as="geometry" />
        </mxCell>
        <mxCell id="6Kz1UC2CJ3yodjOeMeaO-6" value="b" style="edgeLabel;html=1;align=center;verticalAlign=middle;resizable=0;points=[];rounded=0;strokeColor=default;spacing=10;fontFamily=monospace;fontSize=12;fontColor=default;labelBackgroundColor=#444444;fillColor=default;gradientColor=none;" vertex="1" connectable="0" parent="6Kz1UC2CJ3yodjOeMeaO-5">
          <mxGeometry x="-0.1818" y="2" relative="1" as="geometry">
            <mxPoint x="-1" y="-2" as="offset" />
          </mxGeometry>
        </mxCell>
        <mxCell id="6Kz1UC2CJ3yodjOeMeaO-7" value="&lt;div style=&quot;&quot;&gt;S3&lt;/div&gt;" style="rounded=1;whiteSpace=wrap;html=1;fontFamily=monospace;align=center;spacing=7;verticalAlign=middle;spacingTop=0;fillColor=#333333;strokeColor=default;fontSize=12;fontColor=default;" vertex="1" parent="1">
          <mxGeometry x="180" y="20" width="36" height="30" as="geometry" />
        </mxCell>
      </root>
    </mxGraphModel>
  </diagram>
</mxfile>
